# xmcd
#
# Track frame offsets: 
#        150
#        12074
#        22952
#        33100
#        44344
#        53655
#        64403
#        75020
#        87323
#        97214
#        106359
#        117540
#
# Disc length: 1686 seconds
#
# Revision: 0
# Processed by: cddbd v1.5.2PL0 Copyright (c) Steve Scherf et al.
# Submitted via: ExactAudioCopy v1.1
#
DISCID=8c06940c
DTITLE=Joe Jones - You Talk Too Much
DYEAR=1961
DGENRE=Blues
TTITLE0=You Talk Too Much
TTITLE1=I Love You Still
TTITLE2=Take A Little Walk
TTITLE3=Every Night About Eight
TTITLE4=Mcdonald's Daughter
TTITLE5=Tell Me What's Happening
TTITLE6=One Big Mouth(Two Big Ears)
TTITLE7=Here's What You Gotta Do
TTITLE8=I Need Someone
TTITLE9=Where Is My Baby?
TTITLE10=Always Picking On Me
TTITLE11=To Prove My Love To You
EXTD=
EXTT0=
EXTT1=
EXTT2=
EXTT3=
EXTT4=
EXTT5=
EXTT6=
EXTT7=
EXTT8=
EXTT9=
EXTT10=
EXTT11=
PLAYORDER=
